<svg xmlns="http://www.w3.org/2000/svg" viewBox="0 0 25.69 25.69"><defs><style>.cls-1{fill:#fff;}</style></defs><title>download</title><g id="Слой_2" data-name="Слой 2"><g id="_MAIN" data-name="• MAIN"><g id="bubble"><path class="cls-1" d="M12.84,0A12.85,12.85,0,1,0,25.69,12.84,12.84,12.84,0,0,0,12.84,0ZM8,10.42a1.39,1.39,0,0,1,1.83.17L12,13V5.2h2v7.91L16,10.59a1.33,1.33,0,0,1,1.78-.17A1.18,1.18,0,0,1,18,12.09l-4.07,5a1.18,1.18,0,0,1-.93.44h-.1a1.2,1.2,0,0,1-.93-.44l-4-5A1.19,1.19,0,0,1,8,10.42ZM18.77,20.2H7.51c-.65,0-1.18-.34-1.18-1s.53-1,1.18-1H18.77c.66,0,1.19.35,1.19,1S19.43,20.2,18.77,20.2Z"/></g></g></g></svg>