<svg xmlns="http://www.w3.org/2000/svg" viewBox="0 0 226.96 109.27"><defs><style>.cls-1{fill:#2dbecd;}.cls-2{fill:#503291;}</style></defs><title>footer-logo</title><g id="Слой_2" data-name="Слой 2"><g id="Footer"><path class="cls-1" d="M15.72,8.43a57.55,57.55,0,0,1-.77-8h8.44A26.31,26.31,0,0,1,42.17,8.05S59,24.15,57.51,22.24C48.69,30.29,41,33,34.5,31.82,32.59,20.32,25.3,11.5,15.72,8.43ZM49.07,47.92c-3.83-2.68-9.2-3.06-15.33-.76C31.05,58.27,22.62,66.71,13,68.63,9.2,77.83,9.58,87,14.57,90.86c3.83,3.07,9.2,3.45,15,1.54v-18A15.3,15.3,0,0,1,44.47,59a28.83,28.83,0,0,1,10,1.92C54.44,54.82,52.52,50.22,49.07,47.92ZM218.53,59a48.4,48.4,0,0,0-7.28-1.53,10.44,10.44,0,0,0-3.45-.39c-.77,0-1.54-.38-2.69-.38-2.3,0-4.22-.38-6.52-.38a35.38,35.38,0,0,0-6.13.38c-1.53,0-3.07.38-4.6.38h-1.15L181,58.27a19.2,19.2,0,0,0-5,1.54h-.38a21.14,21.14,0,0,1,6.9-.77A15.22,15.22,0,0,1,197.44,74V93.16a16.21,16.21,0,0,0,16.11,16.11H223.9A3,3,0,0,0,227,106.2V62.11A37.69,37.69,0,0,0,218.53,59Zm-132.27,13C92,77.44,99.68,79.36,108.11,79c11.51-11.5,25.69-19.17,41.41-21.09,1.92-1.92,3.45-3.45,5.37-5.75A87.29,87.29,0,0,0,171.76,20.7L158.34,33.35c-11.5,10.74-27.22,16.87-44.47,16.87a66.88,66.88,0,0,1-37.58-11.5C74.38,52.14,77.83,64.41,86.26,72.08ZM203.19,3.83l-.38.39c-7.28,5-12.27,13.8-12.27,21.08h1.92c9.2,0,17.25,5.37,21.85,13.42,1.15,0,2.3-.38,3.45-.38.77,0,1.54-.38,2.3-.38h1.15c.77,0,1.92-.39,2.69-.39h.38c.77,0,1.53-.38,2.3-.38H227V16.87A16,16,0,0,0,211.63.77h-.38a26.6,26.6,0,0,0-7.67,3.06C203.19,3.45,203.19,3.83,203.19,3.83Z"/><path class="cls-2" d="M181,58.27l5.75-1.15h1.15a18.82,18.82,0,0,1,4.6-.38c1.92,0,3.83-.38,6.13-.38a37.55,37.55,0,0,1,6.52.38,7.57,7.57,0,0,1,2.69.38c1.15,0,2.3.39,3.45.39,2.68.38,5,1.15,7.28,1.53A54.77,54.77,0,0,1,227,62.11V36.81h-.38c-.77,0-1.53.38-2.3.38h-.38c-.77,0-1.92.38-2.69.38h-1.15c-.76,0-1.53.39-2.3.39-1.15,0-2.3.38-3.45.38-10,.77-19.93-.77-23-8.82a19.42,19.42,0,0,1-.77-4.6c0-7.28,5-16.1,12.27-21.09l.38-.38a.38.38,0,0,0,.39-.38A18.85,18.85,0,0,1,211.25,0H194.38a5.32,5.32,0,0,0-2.3.77L171.37,19.94A76.44,76.44,0,0,1,154.5,51.37a72.34,72.34,0,0,1-5.36,5.75c-12.65,12.66-28,20.32-41.41,21.09-8.43.77-16.1-1.53-21.85-6.9C77.44,63.64,74,51.37,75.53,37.57a39.53,39.53,0,0,1-4.22-3.07,39.42,39.42,0,0,1-4.22-3.83s-1.91-1.92-5-4.6a58.07,58.07,0,0,0-5-4.6c-8.81,8.05-16.48,10.73-23,9.58-3.83,0-7.67-2.3-11.5-5.75-3.45-2.68-5.75-9.58-6.9-16.87a57.55,57.55,0,0,1-.77-8H3.07A3,3,0,0,0,0,3.45V93.16a16.2,16.2,0,0,0,16.1,16.11H26.45a3,3,0,0,0,3.07-3.07V92.4c-5.75,1.91-10.73,1.53-14.95-1.54-5-3.83-5.75-13-1.53-22.23A63.19,63.19,0,0,1,18.79,59a36.61,36.61,0,0,1,15-11.5c5.75-2.3,11.5-1.92,15.33.77C52.52,51,54.44,55.59,54.44,61c8.44,3.07,15.72,10,22.24,16.1l.38.38c.38.39.77.77,1.15.77.77.77,1.92,1.53,2.68,2.3A34.07,34.07,0,0,0,84.73,84c2.68,2.3,5.37,5,8,6.9,1.15,1.15,2.3,1.92,3.45,3.07,5.75,4.6,11.5,7.67,17.64,7.67,11.5,0,20.7-10.35,33-21.09,8-7.28,16.87-17.25,28.37-20.7H176A19.2,19.2,0,0,1,181,58.27Z"/></g></g></svg>