<svg xmlns="http://www.w3.org/2000/svg" viewBox="0 0 52.35 52.35"><defs><style>.cls-1{fill:#503291;}</style></defs><title>linkedin</title><g id="Слой_2" data-name="Слой 2"><g id="Footer"><path class="cls-1" d="M26.18,0A26.2,26.2,0,0,0,0,26.22,23.59,23.59,0,0,0,4.51,40.68a10.64,10.64,0,0,0,1.78,2,3.53,3.53,0,0,0,5.5-1.39A8.17,8.17,0,0,0,12,39.24l.15-20.19H18V44.66S18,45.94,18,47.32c0,2.85,2.92,4.29,5.05,4.77a14.33,14.33,0,0,0,3.54.26A25.81,25.81,0,0,0,52.35,26.22,26.2,26.2,0,0,0,26.18,0M15.1,16.47a3.41,3.41,0,1,1,3.39-3.41,3.4,3.4,0,0,1-3.39,3.41M40,37.93H34.11V28.75c0-2.19,0-5-3-5s-3.52,2.39-3.52,4.85v9.34H21.7V19.05h5.62v2.58h.08a6.14,6.14,0,0,1,5.54-3.05c5.93,0,7,3.91,7,9V37.93Z"/></g></g></svg>