<svg xmlns="http://www.w3.org/2000/svg" viewBox="0 0 151.58 24.2"><defs><style>.cls-1{fill:#eb3c96;}</style></defs><title>logo</title><g id="Слой_2" data-name="Слой 2"><g id="Headers"><path class="cls-1" d="M129.87,23.79a5.19,5.19,0,0,0,3.81-1.74s.66-.67,1.49-1.58a3.16,3.16,0,0,1,1.91-.91h.5a2.37,2.37,0,0,1,.74.08,6.36,6.36,0,0,1,2.24.66L147.11,23a8.12,8.12,0,0,0,2.9.75h1c.33,0,.5-.25.5-.58V20.8a4.32,4.32,0,0,0-2.65-4l-1.41-.58a9.57,9.57,0,0,1-3.15-2,2.27,2.27,0,0,1,.25-3.14l5.88-5.89a4.27,4.27,0,0,0,1.16-2.9,6.42,6.42,0,0,0-.08-.91,2.81,2.81,0,0,0-.42-.75,2.07,2.07,0,0,0-1.57-.58h-.91a5.11,5.11,0,0,0-3.81,1.66L139.9,6.63,134.59,12V3.48A3.5,3.5,0,0,0,131.11,0h-1.49a2.72,2.72,0,0,0-1.24.17c-.25.16-.25.33-.25.58V23.21a.54.54,0,0,0,.49.49h1.25ZM102.1,20.88a11.51,11.51,0,0,1-3.64-2.32c-1.25-1-2.24-1.74-2.57-2.07a14.72,14.72,0,0,0,3.31-2.4,5.54,5.54,0,0,0,1.33-3.73,7,7,0,0,0-1.24-4,13,13,0,0,0-3.15-3.23A18.38,18.38,0,0,0,91.74.91,13.47,13.47,0,0,0,87,.08H77.49a.54.54,0,0,0-.5.5V23c0,.25,0,.49.25.58a3.79,3.79,0,0,0,1.33.16,6,6,0,0,0,1.65-.25,3.86,3.86,0,0,0,2-1.49,6.19,6.19,0,0,0,1.16-4V8.29a1.93,1.93,0,0,1,.09-.67,4.14,4.14,0,0,1,.16-.41c.75-1.33,3.23-1.82,5.89-1.16,3.56.91,4.56,3.4,4.22,4.39-.41,1.16-1.65,1.83-3.31,1.83a7.52,7.52,0,0,1-2.32-.42s-.5-.16-.91-.25a2.53,2.53,0,0,0-.83-.25c-.25,0-.42.25-.42.67v2.57a2.67,2.67,0,0,0,.83,2.07l7.79,6.13a3.87,3.87,0,0,0,2.41.83h5.13a.59.59,0,0,0,.58-.66V21.3C102.52,21.22,102.27,21,102.1,20.88ZM71.19,17.65H64.4A6.39,6.39,0,0,1,61.66,17a9.55,9.55,0,0,1-2.15-1.66,7.81,7.81,0,0,1-1.5-2.4,8.08,8.08,0,0,1-.49-2.82,3.84,3.84,0,0,1,1.07-2.9c.09-.08.42-.33.75-.58a1.76,1.76,0,0,1,1-.33A5.29,5.29,0,0,1,63,6.3a8.39,8.39,0,0,1,2.23.91,13.14,13.14,0,0,1,3,2.74H61.08c-.41,0-.66.16-.66.58a3.31,3.31,0,0,0,.41,1.82,5,5,0,0,0,4.48,2.73h6.63a2.82,2.82,0,0,0,2.4-.91,3.17,3.17,0,0,0,.58-2A9,9,0,0,0,73.84,8a14.2,14.2,0,0,0-2.9-3.9,16.75,16.75,0,0,0-4.22-2.9A11.92,11.92,0,0,0,61.66.17H52a.53.53,0,0,0-.49.49v9.7a12,12,0,0,0,1.07,5.14,12.65,12.65,0,0,0,2.82,4.22,12.76,12.76,0,0,0,4.23,2.91,12,12,0,0,0,5.14,1.07h9.78a.54.54,0,0,0,.49-.49v-2a3.4,3.4,0,0,0-1-2.66A4.28,4.28,0,0,0,71.19,17.65Zm-22-14.09A3.51,3.51,0,0,0,45.67.08H42a1.24,1.24,0,0,0-.5.17l-7.37,7a13.71,13.71,0,0,1-9.62,3.73,14.16,14.16,0,0,1-9.94-4S9.2,1.82,9.12,1.82A6.07,6.07,0,0,0,5,.17H.66A.58.58,0,0,0,0,.75V20.22A3.5,3.5,0,0,0,3.48,23.7H5.72A.65.65,0,0,0,6.38,23v-7a3.31,3.31,0,0,1,3.23-3.32c3.32,0,5.64,2.82,7.79,4.73,2.66,2.32,4.65,4.56,7.13,4.56s4.48-2.24,7.13-4.56c2.15-1.91,4.47-4.73,7.79-4.73a3.31,3.31,0,0,1,3.23,3.32V20.3a3.51,3.51,0,0,0,3.48,3.49H48.4a.66.66,0,0,0,.66-.67C49.15,23,49.15,3.73,49.15,3.56Zm76.41,10.28H122a2.45,2.45,0,0,0-2.56,1.74,3.37,3.37,0,0,1-1.25,1.74A3.63,3.63,0,0,1,116,18a4.78,4.78,0,0,1-2.49-.74,9.92,9.92,0,0,1-2.32-1.82,9.46,9.46,0,0,1-1.66-2.57A7.11,7.11,0,0,1,108.9,10,3.61,3.61,0,0,1,110,7.21a3.36,3.36,0,0,1,2.65-1.08,5.62,5.62,0,0,1,3.56,1.33,2.86,2.86,0,0,0,1.58.58,2.57,2.57,0,0,0,1.74-.91l2.4-2.41a.52.52,0,0,0,.17-.41c-.09-.08-.17-.25-.33-.41a14.26,14.26,0,0,0-4.31-2.82,12.19,12.19,0,0,0-4.89-1H103a.59.59,0,0,0-.58.67v9.53a13,13,0,0,0,1.07,5.3,14.6,14.6,0,0,0,3,4.39A17.41,17.41,0,0,0,110.81,23a12.05,12.05,0,0,0,5,1.16,10.18,10.18,0,0,0,3.9-.75,9.79,9.79,0,0,0,3.06-2,8.15,8.15,0,0,0,2.08-3.07,12.05,12.05,0,0,0,.91-3.9C126.06,14.09,125.89,13.84,125.56,13.84Z"/></g></g></svg>