<svg xmlns="http://www.w3.org/2000/svg" viewBox="0 0 25.33 25.33"><defs><style>.cls-1{fill:#fff;}</style></defs><title>share</title><g id="Слой_2" data-name="Слой 2"><g id="_MAIN" data-name="• MAIN"><g id="bubble"><path class="cls-1" d="M0,12.67a12.18,12.18,0,0,0,3.7,9,12.23,12.23,0,0,0,9,3.71,12.22,12.22,0,0,0,9-3.71,12.19,12.19,0,0,0,3.71-9,12.25,12.25,0,0,0-3.71-9,12.21,12.21,0,0,0-9-3.7A12.22,12.22,0,0,0,3.7,3.7a12.25,12.25,0,0,0-3.7,9M5.8,9H9.23v9.63H5.8Zm4.43,9V9.73l3.39-5A.55.55,0,0,1,14,4.46a.54.54,0,0,1,.3.06,2.05,2.05,0,0,1,.57.5,1.72,1.72,0,0,1,.31.6,2,2,0,0,1-.27,1.74L13.61,9.73h5.32a1.27,1.27,0,0,1,.94.4,1.38,1.38,0,0,1-.74,2.34l-.89,0a1.36,1.36,0,0,1,.94.39,1.4,1.4,0,0,1,0,2,1.38,1.38,0,0,1-.76.38l-1.17,0a1.28,1.28,0,0,1,.75.39,1.34,1.34,0,0,1,.41,1,1.37,1.37,0,0,1-.41,1,1.46,1.46,0,0,1-.75.38Z"/></g></g></g></svg>