<svg xmlns="http://www.w3.org/2000/svg" viewBox="0 0 52.35 52.35"><defs><style>.cls-1{fill:#503291;}</style></defs><title>twitter</title><g id="Слой_2" data-name="Слой 2"><g id="Footer"><path class="cls-1" d="M28.92.15A26.1,26.1,0,0,0,.11,23.28,17.17,17.17,0,0,0,.18,27.7,6.71,6.71,0,0,0,2,31.5c1.16,1.33,3.93,3.73,9.63,4.52a12.23,12.23,0,0,0,8.65-2,6.8,6.8,0,0,1-5.79-5.34,6.78,6.78,0,0,0,1.25.26,7.18,7.18,0,0,0,1.8-.05,6.78,6.78,0,0,1-4.7-7.17v-.09a6.76,6.76,0,0,0,3,1.17,6.77,6.77,0,0,1-1.14-9.21,19.2,19.2,0,0,0,13.12,8.49,7.3,7.3,0,0,1,0-1.55,6.77,6.77,0,0,1,12.12-3.38A13.65,13.65,0,0,0,44.29,16a6.83,6.83,0,0,1-3.35,3.41,13.87,13.87,0,0,0,4-.65,14,14,0,0,1-3.72,3.13c0,.29,0,.58-.07.87-.94,8.89-8.09,17.91-21,17.91A27.16,27.16,0,0,1,7,37.84a16.28,16.28,0,0,1-2.35-1.46c-1.52-1.18-3.35.7-2.46,1.95a30.45,30.45,0,0,0,3,4.11c4.71,5.32,10.58,9,18.21,9.77A26.17,26.17,0,0,0,28.92.15"/></g></g></svg>